<svg xmlns="http://www.w3.org/2000/svg" version="1.1" xmlns:xlink="http://www.w3.org/1999/xlink" xmlns:svgjs="http://svgjs.dev/svgjs" width="1500" height="352" viewBox="0 0 1500 352"><g transform="matrix(1,0,0,1,-0.9090909090909918,-0.4398697822567499)"><svg viewBox="0 0 396 93" data-background-color="#ffffff" preserveAspectRatio="xMidYMid meet" height="352" width="1500" xmlns="http://www.w3.org/2000/svg" xmlns:xlink="http://www.w3.org/1999/xlink"><g id="tight-bounds" transform="matrix(1,0,0,1,0.2400000000000091,0.11621559588033392)"><svg viewBox="0 0 395.52 92.76756880823933" height="92.76756880823933" width="395.52"><g><svg viewBox="0 0 395.52 92.76756880823933" height="92.76756880823933" width="395.52"><g><svg viewBox="0 0 395.52 92.76756880823933" height="92.76756880823933" width="395.52"><g id="textblocktransform"><svg viewBox="0 0 395.52 92.76756880823933" height="92.76756880823933" width="395.52" id="textblock"><g><svg viewBox="0 0 395.52 92.76756880823933" height="92.76756880823933" width="395.52"><rect width="395.52" height="92.76756880823933" x="0" y="0" opacity="1" fill="#ed1703" data-fill-palette-color="tertiary"></rect><g transform="matrix(1,0,0,1,23.607599999999998,23.607599999999998)"><svg width="348.3048" viewBox="2.7854168333499993 -34.75 275.24458316665 36" height="45.552368808239336" data-palette-color="#ffffff"><path d="M29.4 0.9L28.7 0.4Q28.4 0.05 28.4 0L28.4 0 23.15-6.05Q23-6.2 22.65-6.65 22.3-7.1 22-7.4L22-7.4 21.25-8.15Q20.9-8.4 20.8-8.4L20.8-8.4Q20.6-8.4 20.5-8.28 20.4-8.15 20.4-8L20.4-8 20.4-7.3 20.4-6.2Q20.4-5.4 20.3-4.95L20.3-4.95 20.3-3.65Q20.25-3.2 20.25-2.55L20.25-2.55 20.25-1.9 20.25-1.15 20.25-0.95Q20.25-0.45 19.9-0.4L19.9-0.4Q19.65-0.2 19.15-0.3L19.15-0.3Q16.55-0.2 15.4-0.2L15.4-0.2 9-0.25 8.15-0.25 7.15-0.25Q6.5-0.25 6.25-0.3L6.25-0.3 5.9-0.3 3.65-0.5 3.5-0.9Q3.45-0.9 3.45-1.45L3.45-1.45Q3.45-2.3 3.4-2.9L3.4-2.9 3.4-4.9Q3.3-5.65 3.3-7.15L3.3-7.15 3.2-11Q3.15-12.25 2.95-14.75L2.95-14.75 2.9-16Q2.8-17.7 2.8-18.5L2.8-18.5 2.8-19Q2.9-19.3 2.9-19.9L2.9-19.9Q2.95-20.55 2.95-21.4L2.95-21.4 2.9-22.4Q2.9-22.75 2.85-22.98 2.8-23.2 2.8-23.3L2.8-23.3Q2.8-23.4 2.85-23.9 2.9-24.4 2.9-24.9L2.9-24.9Q2.95-25.5 2.95-26.4L2.95-26.4 2.95-27.15 2.95-28.15Q2.9-29 2.9-30.65L2.9-30.65Q2.8-31 2.8-31.65L2.8-31.65 2.8-32.15Q2.65-33.3 4-33.5L4-33.5Q4.4-33.65 5.15-33.65L5.15-33.65 6.25-33.65 11.8-33.65 15.9-33.65 18.55-33.65 20.15-33.65Q20.85-33.65 21-32.8L21-32.8Q21.05-32.65 21.05-32.15L21.05-32.15 21.05-31.4Q21.05-30.15 20.95-27.65L20.95-27.65 20.9-26.3Q20.8-25 20.8-24.5L20.8-24.5Q21.4-24.5 21.9-24.8L21.9-24.8Q22.25-25.15 22.25-25.15L22.25-25.15Q22.35-25.2 22.48-25.33 22.6-25.45 22.7-25.55L22.7-25.55Q22.9-25.65 23.65-26.4L23.65-26.4Q24.9-27.65 27.75-30.25L27.75-30.25Q30.5-32.85 32.05-34.05L32.05-34.05Q33-34.7 33.25-34.75L33.25-34.75Q33.35-34.75 33.6-34.5 33.85-34.25 33.95-34.15L33.95-34.15Q33.95-34.15 34.4-33.7L34.4-33.7Q34.5-33.45 34.65-33.4L34.65-33.4 34.95-33.05Q35.4-32.7 35.55-32.45L35.55-32.45 36.15-31.9Q36.3-31.75 36.4-31.63 36.5-31.5 36.55-31.45L36.55-31.45Q36.85-30.95 38.15-29.3L38.15-29.3Q39.15-28.15 39.65-27.05L39.65-27.05 39.65-26.95Q39.65-26.25 38.25-24.75L38.25-24.75 37.15-23.65Q36.55-23.1 36.3-22.8L36.3-22.8Q36.25-22.8 36.15-22.7 36.05-22.6 35.9-22.45L35.9-22.45 33.9-20.9Q33.9-20.9 32.9-19.9L32.9-19.9 32-19.2Q31.9-19.15 31.63-18.93 31.35-18.7 31.15-18.65L31.15-18.65Q31-18.55 30.8-18.43 30.6-18.3 30.55-18.2L30.55-18.2Q30.45-18.15 30.45-17.75L30.45-17.75Q30.45-16.95 31.25-16.25L31.25-16.25Q31.6-15.85 31.95-15.65L31.95-15.65 32.65-15.05Q33.7-14 33.7-14L33.7-14Q34.7-13.15 37.3-10.75L37.3-10.75Q39.3-8.95 40.45-7.5L40.45-7.5Q40.95-6.75 40.95-6.4L40.95-6.4Q40.95-6.1 40.88-5.9 40.8-5.7 40.55-5.45L40.55-5.45Q39.55-4.6 38.7-4.2L38.7-4.2Q37.85-3.75 37.05-3.08 36.25-2.4 35.5-1.75L35.5-1.75Q34.85-1.15 34-0.65L34-0.65 33-0.15Q33-0.15 32.55 0.15L32.55 0.15Q32.1 0.45 31.9 0.65L31.9 0.65Q31.15 1.1 30.35 1.1L30.35 1.1Q29.9 1.1 29.4 0.9L29.4 0.9ZM60.35 1.25Q59.95 1.25 59.25 1.15L59.25 1.15Q58.9 1.05 58.15 1.05L58.15 1.05Q56.25 1.05 53.45 0.2L53.45 0.2 53.1 0.2Q52.75 0.2 52.35 0L52.35 0Q52.25-0.1 52.1-0.18 51.95-0.25 51.75-0.4L51.75-0.4 50.7-1Q49.2-1.85 48.05-3.38 46.9-4.9 46.2-6.75L46.2-6.75Q44.85-10.15 44.85-13.7L44.85-13.7Q44.85-17.65 46.45-21.3L46.45-21.3Q48.15-25.15 51-27.4L51-27.4Q54.15-29.9 58-29.9L58-29.9Q59.2-29.9 59.85-29.8L59.85-29.8Q59.85-29.9 60-29.9L60-29.9 60.15-29.9Q63.65-29.9 66.4-29.65L66.4-29.65Q68.75-29.3 70.75-28.2L70.75-28.2Q74.75-25.55 76.5-22.4L76.5-22.4Q78.35-18.9 78.35-14.15L78.35-14.15Q78.35-9.4 76.1-5.25L76.1-5.25 75.6-4.45Q75.4-4.15 75.35-4.15L75.35-4.15 75.2-3.9 74.85-3.7Q72.7-0.5 68.35 0.65L68.35 0.65Q65.45 1.25 60.35 1.25L60.35 1.25ZM61.2-2.5Q61.65-2.5 61.9-3.05L61.9-3.05Q62.5-3.95 62.9-6.55L62.9-6.55Q62.95-7 63.15-8.55 63.35-10.1 63.4-11.45L63.4-11.45Q63.6-14.85 63.6-15.65L63.6-15.65 63.6-16.8 63.6-17.2Q63.6-19 63.45-20.3L63.45-20.3Q63.3-22.35 62.85-23.55L62.85-23.55Q62.4-24.15 62.15-24.15L62.15-24.15Q61.65-24.15 61.2-23.4L61.2-23.4Q60.75-22.65 60.5-20.65L60.5-20.65 59.45-12.65 59.45-11.65 59.45-11Q59.6-8.9 59.6-8.25L59.6-8.25 59.7-7.05 59.85-5.45Q59.85-5.05 59.95-4.75L59.95-4.75 60.5-2.9Q60.55-2.7 60.77-2.6 61-2.5 61.2-2.5L61.2-2.5ZM97.85 0.3L97.15 0.25 96.5 0.15 95.7 0.15Q94.95 0.05 93.1-0.05L93.1-0.05Q92.7-0.05 92.35-0.1 92-0.15 91.7-0.15L91.7-0.15 90.6-0.15 90.1-0.2Q88.5-0.2 87.75-0.15L87.75-0.15Q87-0.05 85.4-0.05L85.4-0.05 84.4-0.05 83.5 0 83.35-0.2 83.35-0.75 83.35-2 83.35-3.3 83.35-4.15 83.35-7.55Q83.35-8.75 83.25-9.3L83.25-9.3 83.25-10.5 83.45-12.65Q83.6-14.65 83.6-18.4L83.6-18.4Q83.7-24.45 84.35-27.15L84.35-27.15Q84.7-28.6 85.5-29L85.5-29 91.35-28.95Q92.1-28.9 93.5-28.9L93.5-28.9 95.9-28.9Q96.15-28.85 96.82-28.8 97.5-28.75 97.85-28.55L97.85-28.55Q98.15-28.3 98.27-27.88 98.4-27.45 98.4-26.65L98.4-26.65 98.35-26.25 98.35-25.65Q98.2-25.3 98.2-24.95L98.2-24.95Q98.1-24.55 98.15-24.15L98.15-24.15 98.15-23.4Q98.2-23.15 98.2-22.7L98.2-22.7 98.25-22.3 98.25-21.15 98.3-19.55Q98.35-19.05 98.35-18.15L98.35-18.15Q98.45-17.45 98.6-17.2L98.6-17.2Q98.6-16.85 98.55-16.45 98.5-16.05 98.5-15.65L98.5-15.65Q98.45-15.05 98.45-13.85L98.45-13.85Q98.45-12.7 98.5-12.15L98.5-12.15Q98.5-11.35 98.75-10.5L98.75-10.5Q99.25-10.3 99.9-10.3L99.9-10.3Q101.55-10.3 103.32-10.35 105.1-10.4 106.5-10.65L106.5-10.65Q106.8-10.6 107.07-10.25 107.35-9.9 107.35-9.65L107.35-9.65 107-1.05Q106.9-0.75 106.6-0.65L106.6-0.65Q105.75-0.25 104.25-0.15L104.25-0.15Q102.25 0.15 101.6 0.15L101.6 0.15 100.75 0.15Q99.75 0.15 99.25 0.2L99.25 0.2Q98.25 0.3 97.85 0.3L97.85 0.3ZM113.19-0.05Q112.34-0.05 112.09-1.15L112.09-1.15Q111.84-1.7 111.84-3.15L111.84-3.15Q111.84-7.5 111.74-10.9L111.74-10.9Q111.59-15.8 111.59-21.25L111.59-21.25 111.59-32.25Q111.59-32.7 112.02-33.13 112.44-33.55 112.89-33.55L112.89-33.55 118.64-33.5Q120.24-33.45 122.84-33.45L122.84-33.45Q126.59-33.45 128.64-33.5L128.64-33.5 130.49-33.55Q133.49-33.65 135.44-33.65L135.44-33.65Q138.59-33.65 141.44-32.75L141.44-32.75Q144.79-31.75 146.89-29.3L146.89-29.3Q149.24-26.65 149.24-22.15L149.24-22.15Q149.24-14.55 145.39-11.15L145.39-11.15Q141.99-7.95 135.24-7.95L135.24-7.95 128.39-7.95Q128.44-6.8 128.44-5.5L128.44-5.5Q128.44-5.05 128.42-4.42 128.39-3.8 128.39-2.75L128.39-2.75Q128.39-1.1 127.69-0.65L127.69-0.65Q127.14-0.2 125.64-0.2L125.64-0.2Q123.44-0.2 122.59-0.15L122.59-0.15Q119.14-0.15 117.09-0.05L117.09-0.05 113.19-0.05ZM129.69-13.95L131.09-13.95Q132.14-13.95 132.64-15.95L132.64-15.95Q133.04-17.3 133.24-19.95L133.24-19.95Q133.34-21.4 133.34-23.2L133.34-23.2 133.34-23.75Q133.34-24.55 133.09-26.15L133.09-26.15Q132.89-27.05 132.64-27.58 132.39-28.1 131.99-28.45L131.99-28.45Q131.59-28.9 131.09-28.9L131.09-28.9Q130.84-28.9 130.67-28.7 130.49-28.5 130.34-28.2L130.34-28.2Q129.79-27.3 129.34-24.2L129.34-24.2Q129.19-23.3 129.09-21.5L129.09-21.5Q128.84-18.75 128.84-14.15L128.84-14.15Q128.84-14.15 128.89-14.1 128.94-14.05 129.09-14L129.09-14 129.69-13.95ZM168.04 0.3L167.34 0.25 166.69 0.15 165.89 0.15Q165.14 0.05 163.29-0.05L163.29-0.05Q162.89-0.05 162.54-0.1 162.19-0.15 161.89-0.15L161.89-0.15 160.79-0.15 160.29-0.2Q158.69-0.2 157.94-0.15L157.94-0.15Q157.19-0.05 155.59-0.05L155.59-0.05 154.59-0.05 153.69 0 153.54-0.2 153.54-0.75 153.54-2 153.54-3.3 153.54-4.15 153.54-7.55Q153.54-8.75 153.44-9.3L153.44-9.3 153.44-10.5 153.64-12.65Q153.79-14.65 153.79-18.4L153.79-18.4Q153.89-24.45 154.54-27.15L154.54-27.15Q154.89-28.6 155.69-29L155.69-29 161.54-28.95Q162.29-28.9 163.69-28.9L163.69-28.9 166.09-28.9Q166.34-28.85 167.02-28.8 167.69-28.75 168.04-28.55L168.04-28.55Q168.34-28.3 168.47-27.88 168.59-27.45 168.59-26.65L168.59-26.65 168.54-26.25 168.54-25.65Q168.39-25.3 168.39-24.95L168.39-24.95Q168.29-24.55 168.34-24.15L168.34-24.15 168.34-23.4Q168.39-23.15 168.39-22.7L168.39-22.7 168.44-22.3 168.44-21.15 168.49-19.55Q168.54-19.05 168.54-18.15L168.54-18.15Q168.64-17.45 168.79-17.2L168.79-17.2Q168.79-16.85 168.74-16.45 168.69-16.05 168.69-15.65L168.69-15.65Q168.64-15.05 168.64-13.85L168.64-13.85Q168.64-12.7 168.69-12.15L168.69-12.15Q168.69-11.35 168.94-10.5L168.94-10.5Q169.44-10.3 170.09-10.3L170.09-10.3Q171.74-10.3 173.52-10.35 175.29-10.4 176.69-10.65L176.69-10.65Q176.99-10.6 177.27-10.25 177.54-9.9 177.54-9.65L177.54-9.65 177.19-1.05Q177.09-0.75 176.79-0.65L176.79-0.65Q175.94-0.25 174.44-0.15L174.44-0.15Q172.44 0.15 171.79 0.15L171.79 0.15 170.94 0.15Q169.94 0.15 169.44 0.2L169.44 0.2Q168.44 0.3 168.04 0.3L168.04 0.3ZM182.29 0.05Q181.34 0.05 181.54-1.65L181.54-1.65Q181.54-2.25 181.79-3L181.79-3Q181.79-3.35 181.84-3.58 181.89-3.8 181.89-3.95L181.89-3.95Q183.04-9.4 184.44-14.7L184.44-14.7 187.84-28Q187.84-28.1 187.99-28.25 188.14-28.4 188.29-28.5L188.29-28.5 188.64-28.5Q189.24-28.5 189.59-28.65L189.59-28.65Q189.89-28.7 190.64-28.7L190.64-28.7Q191.84-28.7 192.44-28.65L192.44-28.65Q193.34-28.5 194.29-28.5L194.29-28.5 196.89-28.55Q197.29-28.65 197.84-28.65L197.84-28.65 200.04-28.75 201.69-28.75Q202.64-28.75 203.54-28.7L203.54-28.7 204.94-28.7Q205.44-28.65 206.39-28.65L206.39-28.65 208.29-28.65Q208.44-28.65 208.59-28.6 208.74-28.55 208.84-28.5L208.84-28.5Q209.04-28.4 209.34-28.4L209.34-28.4 209.79-28.4Q210.14-28.15 210.14-27.9L210.14-27.9 213.69-14.7Q215.34-8.35 216.29-3.95L216.29-3.95Q216.29-3.7 216.44-3L216.44-3Q216.64-2 216.64-1.4L216.64-1.4Q216.64-1.05 216.54-0.45L216.54-0.45Q216.29 0.05 215.84 0.05L215.84 0.05 215.29 0.05Q214.64 0.05 214.29 0L214.29 0 213.19 0 212.14 0 211.29 0Q210.94 0 210.89-0.05L210.89-0.05 208.14-0.05 208.09-0.15Q207.99-0.25 207.79-0.25L207.79-0.25 207.64-0.15Q207.64-0.05 207.54-0.05L207.54-0.05 207.39-0.05 207.04-0.05Q206.79-0.15 206.14-0.15L206.14-0.15Q204.94-0.25 204.14-0.25L204.14-0.25Q203.59-1.4 202.84-5.3L202.84-5.3Q201.79-5.15 200.44-5.15L200.44-5.15 199.14-5.15 197.89-5.15Q197.69-4.4 197.64-3.9L197.64-3.9Q197.59-3.65 197.24-2.2 196.89-0.75 196.59-0.25L196.59-0.25 196.29-0.15Q196.14-0.1 196.04-0.08 195.94-0.05 195.94-0.05L195.94-0.05 195.84-0.05Q195.54-0.05 195.44-0.15L195.44-0.15Q195.24-0.25 195.19-0.25L195.19-0.25 193.29-0.15 191.89-0.15Q191.64-0.1 191.49-0.08 191.34-0.05 191.29-0.05L191.29-0.05 187.29-0.05 186.89-0.05Q186.44 0 185.04 0L185.04 0 183.84 0Q183.54 0.05 182.89 0.05L182.89 0.05 182.29 0.05ZM202.39-10.65Q202.09-12.35 202.04-12.65L202.04-12.65 201.64-15.05Q201.54-15.75 201.44-16.32 201.34-16.9 201.29-17.4L201.29-17.4Q201.14-18 201.06-18.53 200.99-19.05 200.89-19.5L200.89-19.5Q200.84-19.8 200.79-20.28 200.74-20.75 200.64-20.95L200.64-20.95 200.54-21.55Q200.54-21.75 200.44-21.9L200.44-21.9 200.39-22.2Q200.29-21.9 200.29-21.9L200.29-21.9 200.29-21.7 200.29-21.55Q200.29-21.5 200.24-21.38 200.19-21.25 200.14-20.95L200.14-20.95Q200.09-20.7 200.04-20.33 199.99-19.95 199.89-19.5L199.89-19.5 199.54-17.45 199.14-15.15 198.99-14.05Q198.89-13.65 198.79-12.75L198.79-12.75Q198.34-10.5 198.39-10.7L198.39-10.7 200.59-10.7Q200.64-10.75 200.74-10.83 200.84-10.9 200.89-10.9L200.89-10.9 201.04-10.9Q201.29-10.9 201.46-10.85 201.64-10.8 201.79-10.75L201.79-10.75Q202.09-10.65 202.39-10.65L202.39-10.65ZM236.94 1.2Q232.54 1.2 229.69 0.4L229.69 0.4Q225.89-0.65 223.79-3.65L223.79-3.65Q221.44-7 221.44-13.4L221.44-13.4Q221.44-17.3 222.49-20.43 223.54-23.55 225.54-25.7L225.54-25.7Q227.54-27.8 230.19-28.9 232.84-30 235.94-30L235.94-30Q241.14-30 246.74-26.75L246.74-26.75 246.09-21.15 244.94-21.4Q244.74-21.45 243.39-21.75 242.04-22.05 240.94-22.05L240.94-22.05Q238.59-22.05 237.44-20.45L237.44-20.45Q235.94-18.45 235.94-14L235.94-14Q235.94-10.35 236.99-8.5L236.99-8.5Q237.99-6.95 239.69-6.95L239.69-6.95Q240.89-6.95 242.49-7.75L242.49-7.75Q244.04-8.5 245.49-9.5L245.49-9.5 245.99-2.4Q244.24-0.75 241.69 0.2L241.69 0.2Q239.39 1.2 236.94 1.2L236.94 1.2ZM253.78-0.2Q253.68-0.2 253.63-0.4L253.63-0.4Q253.28-0.85 253.13-1.5L253.13-1.5Q252.98-1.75 252.88-2.15L252.88-2.15Q252.43-3.05 252.23-4.65L252.23-4.65Q252.03-6.95 252.03-8.3L252.03-8.3Q251.98-8.9 251.98-9.95L251.98-9.95 251.98-11.15Q251.98-12.65 251.93-13.5L251.93-13.5Q251.88-14.4 251.88-17.05L251.88-17.05Q251.88-24.15 252.18-28L252.18-28Q252.18-28.6 253.88-28.9L253.88-28.9 255.38-28.9 256.63-28.9Q259.48-28.9 260.88-28.8L260.88-28.8Q262.98-28.65 265.13-28.65L265.13-28.65Q265.63-28.65 265.88-28.7L265.88-28.7 266.63-28.7 266.88-28.5Q268.53-28.85 270.28-28.95 272.03-29.05 274.53-29.05L274.53-29.05Q274.63-29.05 274.78-28.9L274.78-28.9 276.38-28.9Q276.78-28.9 277.01-28.45 277.23-28 277.38-27.15L277.38-27.15Q277.58-26.5 277.68-25.55L277.68-25.55Q277.88-24.3 278.03-23.9L278.03-23.9Q278.03-22.5 277.53-22.5L277.53-22.5Q277.48-22.5 277.38-22.65L277.38-22.65 277.18-22.7Q276.93-22.75 276.63-22.65L276.63-22.65Q276.33-22.5 275.98-22.5L275.98-22.5Q275.68-22.5 275.48-22.65L275.48-22.65Q275.38-22.7 275.03-22.7L275.03-22.7Q274.58-22.7 273.98-22.55L273.98-22.55Q273.78-22.5 273.21-22.4 272.63-22.3 271.88-22.3L271.88-22.3Q269.73-22.3 268.78-22.2L268.78-22.2Q268.23-22.15 267.73-21.9L267.73-21.9 267.73-22Q267.53-22 267.38-21.5L267.38-21.5Q267.03-20.65 266.93-19.15L266.93-19.15Q266.88-18.7 266.88-18.15L266.88-18.15Q266.88-17.6 267.06-17.4 267.23-17.2 267.63-17.2L267.63-17.2Q267.93-17.2 268.13-17.4L268.13-17.4Q268.23-17.4 268.38-17.35 268.53-17.3 268.63-17.2L268.63-17.2 272.88-17.2Q272.93-17.3 273.03-17.35 273.13-17.4 273.23-17.4L273.23-17.4Q273.73-17.4 273.98-17.25L273.98-17.25Q274.28-17.1 275.18-16.95L275.18-16.95Q275.68-16.95 275.88-16.65L275.88-16.65Q276.13-16.3 276.13-16L276.13-16 277.18-12.7Q277.33-11.9 275.68-11.65L275.68-11.65Q274.73-11.45 272.03-11.45L272.03-11.45 269.88-11.45 268.38-11.45Q267.68-11.45 267.33-11.38 266.98-11.3 266.88-11L266.88-11Q266.68-10.75 266.68-10.2L266.68-10.2 266.68-10Q266.68-9.75 266.73-9.65L266.73-9.65 266.68-8.55Q266.63-8.2 266.63-7.5L266.63-7.5 266.63-7 266.63-6.55 266.63-6.25Q268.88-6.25 271.23-6.4L271.23-6.4Q273.53-6.55 275.78-6.55L275.78-6.55Q275.93-6.55 276.03-6.33 276.13-6.1 276.13-5.8L276.13-5.8Q276.23-5.5 276.23-5.15L276.23-5.15Q276.33-4.4 276.53-3.75L276.53-3.75 276.88-2.3 276.88-1.3 276.88-1.15 276.88-0.75 276.48-0.4 276.13-0.4 275.98-0.4Q275.43-0.4 275.28-0.45L275.28-0.45Q275.13-0.55 274.93-0.55L274.93-0.55Q274.83-0.5 274.63-0.4 274.43-0.3 274.28-0.2L274.28-0.2 274.28-0.45 273.68-0.4 272.93-0.4Q272.73-0.4 272.63-0.5L272.63-0.5 272.23-0.55Q270.38-0.55 269.63-0.2L269.63-0.2 253.78-0.2Z" opacity="1" transform="matrix(1,0,0,1,0,0)" fill="#ffffff" class="wordmark-text-0" data-fill-palette-color="quaternary" id="text-0"></path></svg></g></svg></g></svg></g></svg></g></svg></g><defs></defs></svg><rect width="395.52" height="92.76756880823933" fill="none" stroke="none" visibility="hidden"></rect></g></svg></g></svg>